<svg width="40" height="40" viewBox="0 0 40 40" fill="none" xmlns="http://www.w3.org/2000/svg">
  <rect width="40" height="40" rx="8" fill="url(#gradient)"/>
  <path d="M12 28V12H16C18.5 12 20 13.5 20 16C20 17.5 19.2 18.7 18 19.3C19.5 20 20.5 21.5 20.5 23.2C20.5 26 18.8 28 16 28H12ZM15 18H16C17.1 18 17.5 17.4 17.5 16.8C17.5 16.2 17.1 15.5 16 15.5H15V18ZM15 25H16.2C17.4 25 17.8 24.3 17.8 23.5C17.8 22.7 17.4 22 16.2 22H15V25Z" fill="white"/>
  <defs>
    <linearGradient id="gradient" x1="0" y1="0" x2="40" y2="40" gradientUnits="userSpaceOnUse">
      <stop stop-color="#3B82F6"/>
      <stop offset="1" stop-color="#8B5CF6"/>
    </linearGradient>
  </defs>
</svg>